<mxfile host="65bd71144e">
    <diagram id="HR8k2qgD4njC-isswzVa" name="第 1 页">
        <mxGraphModel dx="1162" dy="670" grid="1" gridSize="10" guides="1" tooltips="1" connect="1" arrows="1" fold="1" page="1" pageScale="1" pageWidth="827" pageHeight="1169" math="0" shadow="0">
            <root>
                <mxCell id="0"/>
                <mxCell id="1" parent="0"/>
                <mxCell id="110" value="&lt;div style=&quot;color: rgb(56 , 58 , 66) ; background-color: rgb(250 , 250 , 250) ; font-family: &amp;#34;consolas&amp;#34; , &amp;#34;courier new&amp;#34; , monospace ; font-size: 11px ; line-height: 22px&quot;&gt;&lt;div style=&quot;font-family: &amp;#34;consolas&amp;#34; , &amp;#34;courier new&amp;#34; , monospace ; line-height: 22px&quot;&gt;&lt;div style=&quot;font-family: &amp;#34;consolas&amp;#34; , &amp;#34;courier new&amp;#34; , monospace ; line-height: 22px&quot;&gt;&lt;div&gt;&lt;span style=&quot;color: #c18401&quot;&gt;oop&lt;/span&gt; StringTable::&lt;span style=&quot;color: #4078f2&quot;&gt;intern&lt;/span&gt;(&lt;span style=&quot;color: #c18401&quot;&gt;Handle&lt;/span&gt; string_or_null, &lt;span style=&quot;color: #c18401&quot;&gt;jchar&lt;/span&gt;&lt;span style=&quot;color: #a626a4&quot;&gt;*&lt;/span&gt; name,&lt;/div&gt;&lt;div&gt;&amp;nbsp; &amp;nbsp; &amp;nbsp; &amp;nbsp; &amp;nbsp; &amp;nbsp; &amp;nbsp; &amp;nbsp; &amp;nbsp; &amp;nbsp; &amp;nbsp; &amp;nbsp; &lt;span style=&quot;color: #a626a4&quot;&gt;int&lt;/span&gt; len, &lt;span style=&quot;color: #4078f2&quot;&gt;TRAPS&lt;/span&gt;) {&lt;/div&gt;&lt;div&gt;&amp;nbsp; &lt;span style=&quot;color: #a626a4&quot;&gt;unsigned&lt;/span&gt; &lt;span style=&quot;color: #a626a4&quot;&gt;int&lt;/span&gt; hashValue &lt;span style=&quot;color: #a626a4&quot;&gt;=&lt;/span&gt; &lt;span style=&quot;color: #4078f2&quot;&gt;hash_string&lt;/span&gt;(name, len);&lt;/div&gt;&lt;div&gt;&amp;nbsp; &lt;span style=&quot;color: #a626a4&quot;&gt;int&lt;/span&gt; index &lt;span style=&quot;color: #a626a4&quot;&gt;=&lt;/span&gt; &lt;span style=&quot;color: #4078f2&quot;&gt;the_table&lt;/span&gt;()-&amp;gt;&lt;span style=&quot;color: #4078f2&quot;&gt;hash_to_index&lt;/span&gt;(hashValue);&lt;/div&gt;&lt;div&gt;&amp;nbsp; oop found_string &lt;span style=&quot;color: #a626a4&quot;&gt;=&lt;/span&gt; &lt;span style=&quot;color: #4078f2&quot;&gt;the_table&lt;/span&gt;()-&amp;gt;&lt;span style=&quot;color: #4078f2&quot;&gt;lookup&lt;/span&gt;(index, name, len, hashValue);&lt;/div&gt;&lt;br&gt;&lt;div&gt;&lt;span style=&quot;color: #a0a1a7 ; font-style: italic&quot;&gt;&amp;nbsp; // Found&lt;/span&gt;&lt;/div&gt;&lt;div&gt;&amp;nbsp; &lt;span style=&quot;color: #a626a4&quot;&gt;if&lt;/span&gt; (found_string &lt;span style=&quot;color: #a626a4&quot;&gt;!=&lt;/span&gt; &lt;span style=&quot;color: #4078f2&quot;&gt;NULL&lt;/span&gt;) {&lt;/div&gt;&lt;div&gt;&amp;nbsp; &amp;nbsp; &lt;span style=&quot;color: #4078f2&quot;&gt;ensure_string_alive&lt;/span&gt;(found_string);&lt;/div&gt;&lt;div&gt;&amp;nbsp; &amp;nbsp; &lt;span style=&quot;color: #a626a4&quot;&gt;return&lt;/span&gt; found_string;&lt;/div&gt;&lt;div&gt;&amp;nbsp; }&lt;/div&gt;&amp;nbsp; ...&lt;br&gt;&lt;div&gt;&amp;nbsp; Handle string;&lt;/div&gt;&lt;div&gt;&lt;span style=&quot;color: #a0a1a7 ; font-style: italic&quot;&gt;&amp;nbsp; // try to reuse the string if possible&lt;/span&gt;&lt;/div&gt;&lt;div&gt;&amp;nbsp; &lt;span style=&quot;color: #a626a4&quot;&gt;if&lt;/span&gt; (&lt;span style=&quot;color: #a626a4&quot;&gt;!&lt;/span&gt;&lt;span style=&quot;color: #e45649&quot;&gt;string_or_null&lt;/span&gt;.&lt;span style=&quot;color: #4078f2&quot;&gt;is_null&lt;/span&gt;()) {&lt;/div&gt;&lt;div&gt;&amp;nbsp; &amp;nbsp; string &lt;span style=&quot;color: #a626a4&quot;&gt;=&lt;/span&gt; string_or_null;&lt;/div&gt;&lt;div&gt;&amp;nbsp; } &lt;span style=&quot;color: #a626a4&quot;&gt;else&lt;/span&gt; {&lt;/div&gt;&lt;div&gt;&amp;nbsp; &amp;nbsp; string &lt;span style=&quot;color: #a626a4&quot;&gt;=&lt;/span&gt; java_lang_String::&lt;span style=&quot;color: #4078f2&quot;&gt;create_from_unicode&lt;/span&gt;(name, len, &lt;span style=&quot;color: #4078f2&quot;&gt;CHECK_NULL&lt;/span&gt;);&lt;/div&gt;&lt;div&gt;&amp;nbsp; }&lt;/div&gt;&amp;nbsp; ...&lt;div&gt;&amp;nbsp; oop added_or_found;&lt;/div&gt;&lt;div&gt;&amp;nbsp; {&lt;/div&gt;&lt;div&gt;&amp;nbsp; &amp;nbsp; MutexLocker &lt;span style=&quot;color: #4078f2&quot;&gt;ml&lt;/span&gt;(StringTable_lock, &lt;span style=&quot;color: #4078f2&quot;&gt;THREAD&lt;/span&gt;);&lt;/div&gt;&lt;div&gt;&lt;span style=&quot;color: #a0a1a7 ; font-style: italic&quot;&gt;&amp;nbsp; &amp;nbsp; // Otherwise, add to symbol to table&lt;/span&gt;&lt;/div&gt;&lt;div&gt;&amp;nbsp; &amp;nbsp; added_or_found &lt;span style=&quot;color: #a626a4&quot;&gt;=&lt;/span&gt; &lt;span style=&quot;color: #4078f2&quot;&gt;the_table&lt;/span&gt;()-&amp;gt;&lt;span style=&quot;color: #4078f2&quot;&gt;basic_add&lt;/span&gt;(index, string, name, len,&lt;/div&gt;&lt;div&gt;&amp;nbsp; &amp;nbsp; &amp;nbsp; &amp;nbsp; &amp;nbsp; &amp;nbsp; &amp;nbsp; &amp;nbsp; &amp;nbsp; &amp;nbsp; &amp;nbsp; &amp;nbsp; &amp;nbsp; &amp;nbsp; &amp;nbsp; &amp;nbsp; &amp;nbsp; hashValue, &lt;span style=&quot;color: #4078f2&quot;&gt;CHECK_NULL&lt;/span&gt;);&lt;/div&gt;&lt;div&gt;&amp;nbsp; }&lt;/div&gt;&amp;nbsp; ...&lt;br&gt;&lt;div&gt;&amp;nbsp; &lt;span style=&quot;color: #a626a4&quot;&gt;return&lt;/span&gt; added_or_found;&lt;/div&gt;&lt;div&gt;}&lt;/div&gt;&lt;/div&gt;&lt;/div&gt;&lt;/div&gt;" style="rounded=0;whiteSpace=wrap;html=1;fillColor=#ffe6cc;strokeColor=#d79b00;comic=1;align=left;" vertex="1" parent="1">
                    <mxGeometry x="46.25" y="1470" width="453.75" height="670" as="geometry"/>
                </mxCell>
                <mxCell id="4" style="edgeStyle=none;html=1;exitX=1;exitY=0.5;exitDx=0;exitDy=0;entryX=0;entryY=0.5;entryDx=0;entryDy=0;sketch=1;" edge="1" parent="1" source="2" target="3">
                    <mxGeometry relative="1" as="geometry"/>
                </mxCell>
                <mxCell id="15" style="edgeStyle=orthogonalEdgeStyle;sketch=1;html=1;exitX=1;exitY=0.5;exitDx=0;exitDy=0;entryX=0;entryY=0.5;entryDx=0;entryDy=0;fontSize=11;curved=1;" edge="1" parent="1" source="2" target="14">
                    <mxGeometry relative="1" as="geometry"/>
                </mxCell>
                <mxCell id="42" style="edgeStyle=orthogonalEdgeStyle;sketch=1;html=1;exitX=1;exitY=0.5;exitDx=0;exitDy=0;entryX=0;entryY=0.5;entryDx=0;entryDy=0;fontSize=11;curved=1;" edge="1" parent="1" source="2" target="41">
                    <mxGeometry relative="1" as="geometry">
                        <Array as="points">
                            <mxPoint x="140" y="158"/>
                            <mxPoint x="140" y="514"/>
                        </Array>
                    </mxGeometry>
                </mxCell>
                <mxCell id="57" style="edgeStyle=orthogonalEdgeStyle;sketch=1;html=1;exitX=1;exitY=0.5;exitDx=0;exitDy=0;entryX=0;entryY=0.5;entryDx=0;entryDy=0;fontSize=11;curved=1;" edge="1" parent="1" source="2" target="56">
                    <mxGeometry relative="1" as="geometry">
                        <Array as="points">
                            <mxPoint x="140" y="158"/>
                            <mxPoint x="140" y="785"/>
                        </Array>
                    </mxGeometry>
                </mxCell>
                <mxCell id="2" value="StringTable" style="rounded=0;whiteSpace=wrap;html=1;fillColor=#ffe6cc;strokeColor=#d79b00;comic=1;" vertex="1" parent="1">
                    <mxGeometry x="40" y="142.5" width="80" height="30" as="geometry"/>
                </mxCell>
                <mxCell id="6" style="edgeStyle=none;sketch=1;html=1;exitX=1;exitY=0.5;exitDx=0;exitDy=0;entryX=0;entryY=0.5;entryDx=0;entryDy=0;" edge="1" parent="1" source="3" target="5">
                    <mxGeometry relative="1" as="geometry"/>
                </mxCell>
                <mxCell id="3" value="StringTable&lt;br&gt;是什么？" style="rounded=0;whiteSpace=wrap;html=1;fillColor=#b0e3e6;strokeColor=#0e8088;comic=1;" vertex="1" parent="1">
                    <mxGeometry x="160" y="82.5" width="80" height="40" as="geometry"/>
                </mxCell>
                <mxCell id="12" style="edgeStyle=none;sketch=1;html=1;exitX=1;exitY=0.5;exitDx=0;exitDy=0;entryX=0;entryY=0.5;entryDx=0;entryDy=0;fontSize=11;" edge="1" parent="1" source="5" target="7">
                    <mxGeometry relative="1" as="geometry"/>
                </mxCell>
                <mxCell id="5" value="StringTable又被称为&lt;b&gt;字符串池&lt;/b&gt;，在逻辑上是运行时常量池的一部分。它本质上是一个&lt;b&gt;C++实现的哈希表&lt;/b&gt;，维护在虚拟机运行时的内部" style="rounded=0;whiteSpace=wrap;html=1;fillColor=#ffe6cc;strokeColor=#d79b00;comic=1;sketch=1;" vertex="1" parent="1">
                    <mxGeometry x="280" y="77.5" width="250" height="50" as="geometry"/>
                </mxCell>
                <mxCell id="13" style="edgeStyle=none;sketch=1;html=1;exitX=1;exitY=0.5;exitDx=0;exitDy=0;entryX=0;entryY=0.5;entryDx=0;entryDy=0;fontSize=11;" edge="1" parent="1" source="7" target="10">
                    <mxGeometry relative="1" as="geometry"/>
                </mxCell>
                <mxCell id="7" value="&lt;div style=&quot;text-align: left&quot;&gt;&lt;span&gt;哈希表项内容：&lt;/span&gt;&lt;/div&gt;&lt;div style=&quot;text-align: left&quot;&gt;&lt;span&gt;key：oop，即Java的String实例&lt;/span&gt;&lt;/div&gt;&lt;div style=&quot;text-align: left&quot;&gt;（从源码来看并没有value值，应该说是一个&lt;b&gt;HashSet&lt;/b&gt;一样的结构）&lt;/div&gt;" style="rounded=0;whiteSpace=wrap;html=1;fillColor=#dae8fc;strokeColor=#6c8ebf;comic=1;sketch=1;" vertex="1" parent="1">
                    <mxGeometry x="560" y="70" width="250" height="65" as="geometry"/>
                </mxCell>
                <mxCell id="10" value="&lt;div style=&quot;color: rgb(56 , 58 , 66) ; background-color: rgb(250 , 250 , 250) ; font-family: &amp;#34;consolas&amp;#34; , &amp;#34;courier new&amp;#34; , monospace ; font-size: 11px ; line-height: 22px&quot;&gt;&lt;div&gt;&lt;span style=&quot;color: #a626a4&quot;&gt;template&lt;/span&gt; &amp;lt;&lt;span style=&quot;color: #a626a4&quot;&gt;class&lt;/span&gt; &lt;span style=&quot;color: #c18401&quot;&gt;T&lt;/span&gt;, &lt;span style=&quot;color: #c18401&quot;&gt;MEMFLAGS&lt;/span&gt; &lt;span style=&quot;color: #c18401&quot;&gt;F&lt;/span&gt;&amp;gt; &lt;span style=&quot;color: #a626a4&quot;&gt;class&lt;/span&gt; &lt;span style=&quot;color: #c18401&quot;&gt;HashtableEntry&lt;/span&gt; : &lt;span style=&quot;color: #a626a4&quot;&gt;public&lt;/span&gt; &lt;span style=&quot;color: #c18401&quot;&gt;BasicHashtableEntry&lt;/span&gt;&amp;lt;&lt;span style=&quot;color: #c18401&quot;&gt;F&lt;/span&gt;&amp;gt; {&lt;/div&gt;&lt;div&gt;&amp;nbsp; &lt;span style=&quot;color: #a626a4&quot;&gt;friend&lt;/span&gt; &lt;span style=&quot;color: #a626a4&quot;&gt;class&lt;/span&gt; &lt;span style=&quot;color: #c18401&quot;&gt;VMStructs&lt;/span&gt;;&lt;/div&gt;&lt;div&gt;&lt;span style=&quot;color: #a626a4&quot;&gt;private:&lt;/span&gt;&lt;/div&gt;&lt;div&gt;&amp;nbsp; &lt;span style=&quot;color: #c18401&quot;&gt;T&lt;/span&gt; &amp;nbsp; &amp;nbsp; &amp;nbsp; &amp;nbsp; &amp;nbsp; &amp;nbsp; &amp;nbsp; &lt;span style=&quot;color: #e45649&quot;&gt;_literal&lt;/span&gt;;&lt;span style=&quot;color: #a0a1a7 ; font-style: italic&quot;&gt; &amp;nbsp; &amp;nbsp; &amp;nbsp; &amp;nbsp; &amp;nbsp;// ref to item in table.&lt;/span&gt;&lt;/div&gt;&amp;nbsp; ...&lt;br&gt;&lt;div&gt;};&lt;/div&gt;&lt;/div&gt;" style="rounded=0;whiteSpace=wrap;html=1;fillColor=#ffe6cc;strokeColor=#d79b00;comic=1;align=left;" vertex="1" parent="1">
                    <mxGeometry x="850" y="32.5" width="520" height="140" as="geometry"/>
                </mxCell>
                <mxCell id="38" style="edgeStyle=none;rounded=0;sketch=1;html=1;exitX=1;exitY=0.5;exitDx=0;exitDy=0;entryX=0;entryY=0.5;entryDx=0;entryDy=0;fontSize=11;" edge="1" parent="1" source="14" target="17">
                    <mxGeometry relative="1" as="geometry">
                        <mxPoint x="230" y="235" as="sourcePoint"/>
                    </mxGeometry>
                </mxCell>
                <mxCell id="40" style="edgeStyle=orthogonalEdgeStyle;rounded=0;sketch=1;html=1;exitX=0.5;exitY=1;exitDx=0;exitDy=0;entryX=0;entryY=0.5;entryDx=0;entryDy=0;fontSize=11;" edge="1" parent="1" source="14" target="39">
                    <mxGeometry relative="1" as="geometry"/>
                </mxCell>
                <mxCell id="14" value="作用" style="rounded=0;whiteSpace=wrap;html=1;fillColor=#dae8fc;strokeColor=#6c8ebf;comic=1;" vertex="1" parent="1">
                    <mxGeometry x="160" y="221.25" width="60" height="27.5" as="geometry"/>
                </mxCell>
                <mxCell id="16" value="这些操作都是在虚拟机中完成的&lt;br&gt;（c++代码实现）" style="rounded=0;whiteSpace=wrap;html=1;fillColor=#ffe6cc;strokeColor=#d79b00;comic=1;sketch=1;" vertex="1" parent="1">
                    <mxGeometry x="850" y="185" width="173" height="50" as="geometry"/>
                </mxCell>
                <mxCell id="17" value="Java字面量字符串" style="rounded=0;whiteSpace=wrap;html=1;fillColor=#dae8fc;strokeColor=#6c8ebf;comic=1;verticalAlign=top;" vertex="1" parent="1">
                    <mxGeometry x="250" y="155" width="290" height="160" as="geometry"/>
                </mxCell>
                <mxCell id="20" style="edgeStyle=none;sketch=1;html=1;exitX=0.5;exitY=1;exitDx=0;exitDy=0;entryX=0.5;entryY=0;entryDx=0;entryDy=0;fontSize=11;" edge="1" parent="1" source="18" target="19">
                    <mxGeometry relative="1" as="geometry"/>
                </mxCell>
                <mxCell id="18" value="① 在编译后会存在&lt;b&gt;class文件的常量池&lt;/b&gt;中" style="rounded=0;whiteSpace=wrap;html=1;comic=1;" vertex="1" parent="1">
                    <mxGeometry x="280" y="185" width="220" height="27.5" as="geometry"/>
                </mxCell>
                <mxCell id="22" style="edgeStyle=none;sketch=1;html=1;exitX=0.5;exitY=1;exitDx=0;exitDy=0;entryX=0.5;entryY=0;entryDx=0;entryDy=0;fontSize=11;" edge="1" parent="1" source="19" target="21">
                    <mxGeometry relative="1" as="geometry"/>
                </mxCell>
                <mxCell id="19" value="② 类加载后来到&lt;b&gt;运行时常量池&lt;/b&gt;" style="rounded=0;whiteSpace=wrap;html=1;comic=1;" vertex="1" parent="1">
                    <mxGeometry x="305" y="231.25" width="170" height="27.5" as="geometry"/>
                </mxCell>
                <mxCell id="21" value="③ 执行对应字面量字符串赋值代码" style="rounded=0;whiteSpace=wrap;html=1;comic=1;" vertex="1" parent="1">
                    <mxGeometry x="287.5" y="275" width="205" height="27.5" as="geometry"/>
                </mxCell>
                <mxCell id="35" value="" style="group" vertex="1" connectable="0" parent="1">
                    <mxGeometry x="557" y="150" width="270" height="290" as="geometry"/>
                </mxCell>
                <mxCell id="23" value="" style="rounded=0;whiteSpace=wrap;html=1;fillColor=#f8cecc;strokeColor=#b85450;comic=1;verticalAlign=top;" vertex="1" parent="35">
                    <mxGeometry width="270" height="290" as="geometry"/>
                </mxCell>
                <mxCell id="24" value="从常量池中获取utf8值" style="rounded=0;whiteSpace=wrap;html=1;comic=1;" vertex="1" parent="35">
                    <mxGeometry x="30" y="10" width="140" height="27.5" as="geometry"/>
                </mxCell>
                <mxCell id="25" value="根据utf8串的值&lt;br&gt;先创建一个Java String实例" style="rounded=0;whiteSpace=wrap;html=1;comic=1;" vertex="1" parent="35">
                    <mxGeometry x="15" y="127.5" width="170" height="37.5" as="geometry"/>
                </mxCell>
                <mxCell id="31" value="不存在" style="rounded=0;sketch=1;html=1;exitX=0.5;exitY=1;exitDx=0;exitDy=0;entryX=0.5;entryY=0;entryDx=0;entryDy=0;fontSize=11;" edge="1" parent="35" source="26" target="25">
                    <mxGeometry x="-0.2727" y="23" relative="1" as="geometry">
                        <mxPoint as="offset"/>
                    </mxGeometry>
                </mxCell>
                <mxCell id="26" value="到串池中寻找&lt;br&gt;看是否存在" style="rhombus;whiteSpace=wrap;html=1;comic=1;sketch=0;fontSize=11;fillColor=#ffe6cc;strokeColor=#d79b00;" vertex="1" parent="35">
                    <mxGeometry x="22.5" y="60" width="155" height="40" as="geometry"/>
                </mxCell>
                <mxCell id="27" style="edgeStyle=none;sketch=1;html=1;exitX=0.5;exitY=1;exitDx=0;exitDy=0;entryX=0.5;entryY=0;entryDx=0;entryDy=0;fontSize=11;" edge="1" parent="35" source="24" target="26">
                    <mxGeometry relative="1" as="geometry"/>
                </mxCell>
                <mxCell id="28" value="返回Java String实例oop" style="rounded=0;whiteSpace=wrap;html=1;comic=1;fillColor=#d5e8d4;strokeColor=#82b366;" vertex="1" parent="35">
                    <mxGeometry x="30" y="250" width="140" height="27.5" as="geometry"/>
                </mxCell>
                <mxCell id="29" value="存在&lt;br&gt;直接返回&lt;br&gt;entry.key" style="edgeStyle=orthogonalEdgeStyle;sketch=1;html=1;exitX=1;exitY=0.5;exitDx=0;exitDy=0;entryX=1;entryY=0.5;entryDx=0;entryDy=0;fontSize=11;rounded=0;" edge="1" parent="35" source="26" target="28">
                    <mxGeometry relative="1" as="geometry">
                        <Array as="points">
                            <mxPoint x="240" y="80"/>
                            <mxPoint x="240" y="264"/>
                        </Array>
                    </mxGeometry>
                </mxCell>
                <mxCell id="34" style="edgeStyle=none;rounded=0;sketch=1;html=1;exitX=0.5;exitY=1;exitDx=0;exitDy=0;entryX=0.5;entryY=0;entryDx=0;entryDy=0;fontSize=11;" edge="1" parent="35" source="32" target="28">
                    <mxGeometry relative="1" as="geometry"/>
                </mxCell>
                <mxCell id="32" value="构建一个HashtableEntry放入常量池中，key为刚创建的实例" style="rounded=0;whiteSpace=wrap;html=1;comic=1;" vertex="1" parent="35">
                    <mxGeometry x="15" y="190" width="170" height="37.5" as="geometry"/>
                </mxCell>
                <mxCell id="33" style="edgeStyle=none;rounded=0;sketch=1;html=1;exitX=0.5;exitY=1;exitDx=0;exitDy=0;entryX=0.5;entryY=0;entryDx=0;entryDy=0;fontSize=11;" edge="1" parent="35" source="25" target="32">
                    <mxGeometry relative="1" as="geometry"/>
                </mxCell>
                <mxCell id="36" style="edgeStyle=none;rounded=0;sketch=1;html=1;exitX=1;exitY=0.5;exitDx=0;exitDy=0;entryX=0;entryY=0.5;entryDx=0;entryDy=0;fontSize=11;dashed=1;" edge="1" parent="1" source="21" target="24">
                    <mxGeometry relative="1" as="geometry"/>
                </mxCell>
                <mxCell id="37" style="edgeStyle=none;rounded=0;sketch=1;html=1;exitX=0;exitY=0.5;exitDx=0;exitDy=0;dashed=1;fontSize=11;entryX=1;entryY=0.5;entryDx=0;entryDy=0;" edge="1" parent="1" source="28" target="21">
                    <mxGeometry relative="1" as="geometry">
                        <mxPoint x="450" y="360" as="targetPoint"/>
                    </mxGeometry>
                </mxCell>
                <mxCell id="39" value="概括串池的作用：&lt;br&gt;字符串字面量在运行时会生成String实例，串池的作用就是维护这些字面量生成的String对象，可以&lt;b&gt;实现字面量字符串去重&lt;/b&gt;，&lt;b&gt;节省内存开销&lt;/b&gt;" style="rounded=0;whiteSpace=wrap;html=1;fillColor=#ffe6cc;strokeColor=#d79b00;comic=1;sketch=1;align=left;" vertex="1" parent="1">
                    <mxGeometry x="250" y="330" width="260" height="70" as="geometry"/>
                </mxCell>
                <mxCell id="44" style="edgeStyle=orthogonalEdgeStyle;curved=1;sketch=1;html=1;exitX=1;exitY=0.5;exitDx=0;exitDy=0;entryX=0;entryY=0.5;entryDx=0;entryDy=0;fontSize=11;" edge="1" parent="1" source="41" target="43">
                    <mxGeometry relative="1" as="geometry"/>
                </mxCell>
                <mxCell id="51" style="edgeStyle=none;rounded=0;sketch=1;html=1;exitX=1;exitY=0.5;exitDx=0;exitDy=0;entryX=0;entryY=0.5;entryDx=0;entryDy=0;fontSize=11;" edge="1" parent="1" source="41" target="50">
                    <mxGeometry relative="1" as="geometry"/>
                </mxCell>
                <mxCell id="41" value="案例" style="rounded=0;whiteSpace=wrap;html=1;fillColor=#dae8fc;strokeColor=#6c8ebf;comic=1;" vertex="1" parent="1">
                    <mxGeometry x="160" y="500" width="60" height="27.5" as="geometry"/>
                </mxCell>
                <mxCell id="46" value="字节码" style="sketch=1;html=1;exitX=1;exitY=0.5;exitDx=0;exitDy=0;entryX=0;entryY=0.5;entryDx=0;entryDy=0;fontSize=11;rounded=0;" edge="1" parent="1" source="43" target="45">
                    <mxGeometry relative="1" as="geometry"/>
                </mxCell>
                <mxCell id="43" value="&lt;pre style=&quot;background-color: rgb(255 , 255 , 255) ; color: rgb(8 , 8 , 8) ; font-family: &amp;#34;consolas&amp;#34; , monospace ; font-size: 11px&quot;&gt;&lt;pre style=&quot;font-family: &amp;#34;consolas&amp;#34; , monospace&quot;&gt;&lt;span style=&quot;color: #0033b3&quot;&gt;public static void &lt;/span&gt;&lt;span style=&quot;color: #795e26&quot;&gt;main&lt;/span&gt;(&lt;span style=&quot;color: #066555&quot;&gt;String&lt;/span&gt;[] args)&lt;span style=&quot;color: #066555&quot;&gt; &lt;/span&gt;{&lt;br&gt;    &lt;span style=&quot;color: #066555&quot;&gt;String &lt;/span&gt;&lt;span style=&quot;color: #000000&quot;&gt;str1 &lt;/span&gt;= &lt;span style=&quot;color: #067d17 ; font-weight: bold&quot;&gt;&quot;123&quot;&lt;/span&gt;;&lt;br&gt;}&lt;/pre&gt;&lt;/pre&gt;" style="rounded=0;whiteSpace=wrap;html=1;fillColor=#ffe6cc;strokeColor=#d79b00;comic=1;align=left;" vertex="1" parent="1">
                    <mxGeometry x="246.5" y="493.75" width="246" height="40" as="geometry"/>
                </mxCell>
                <mxCell id="48" style="edgeStyle=none;rounded=0;sketch=1;html=1;exitX=1;exitY=0.5;exitDx=0;exitDy=0;entryX=0;entryY=0.5;entryDx=0;entryDy=0;fontSize=11;" edge="1" parent="1" source="45" target="47">
                    <mxGeometry relative="1" as="geometry"/>
                </mxCell>
                <mxCell id="45" value="" style="shape=image;imageAspect=0;aspect=fixed;verticalLabelPosition=bottom;verticalAlign=top;comic=1;sketch=1;fontSize=11;image=https://codereaper-image-bed.oss-cn-shenzhen.aliyuncs.com/img/image-20220904001940729.png;imageBorder=default;" vertex="1" parent="1">
                    <mxGeometry x="557" y="474.03" width="382.47" height="79.44" as="geometry"/>
                </mxCell>
                <mxCell id="47" value="&lt;div style=&quot;text-align: left&quot;&gt;在字节码层面只执行了&lt;b&gt;ldc指令&lt;/b&gt;获取常量池中的值，在虚拟机执行该指令时就执行了上面&lt;/div&gt;&lt;div style=&quot;text-align: left&quot;&gt;&lt;span&gt;① 创建String实例&lt;/span&gt;&lt;/div&gt;&lt;div style=&quot;text-align: left&quot;&gt;&lt;span&gt;② 实例加入串池&lt;/span&gt;&lt;/div&gt;&lt;div style=&quot;text-align: left&quot;&gt;&lt;span&gt;的逻辑&lt;/span&gt;&lt;/div&gt;" style="rounded=0;whiteSpace=wrap;html=1;fillColor=#ffe6cc;strokeColor=#d79b00;comic=1;sketch=1;" vertex="1" parent="1">
                    <mxGeometry x="970" y="468.13" width="173" height="91.25" as="geometry"/>
                </mxCell>
                <mxCell id="53" value="运行结果" style="edgeStyle=none;rounded=0;sketch=1;html=1;exitX=1;exitY=0.5;exitDx=0;exitDy=0;entryX=0;entryY=0.5;entryDx=0;entryDy=0;fontSize=11;" edge="1" parent="1" source="50" target="52">
                    <mxGeometry relative="1" as="geometry"/>
                </mxCell>
                <mxCell id="50" value="&lt;pre style=&quot;background-color: rgb(255 , 255 , 255) ; color: rgb(8 , 8 , 8) ; font-family: &amp;#34;consolas&amp;#34; , monospace ; font-size: 11px&quot;&gt;&lt;pre style=&quot;font-family: &amp;#34;consolas&amp;#34; , monospace&quot;&gt;&lt;pre style=&quot;font-family: &amp;#34;consolas&amp;#34; , monospace&quot;&gt;&lt;pre style=&quot;font-family: &amp;#34;consolas&amp;#34; , monospace&quot;&gt;&lt;span style=&quot;color: #0033b3&quot;&gt;public static void &lt;/span&gt;&lt;span style=&quot;color: #795e26&quot;&gt;main&lt;/span&gt;(&lt;span style=&quot;color: #066555&quot;&gt;String&lt;/span&gt;[] args) {&lt;br&gt;    &lt;span style=&quot;color: #066555&quot;&gt;String &lt;/span&gt;&lt;span style=&quot;color: #000000&quot;&gt;str1 &lt;/span&gt;= &lt;span style=&quot;color: #067d17 ; font-weight: bold&quot;&gt;&quot;123&quot;&lt;/span&gt;;&lt;br&gt;    &lt;span style=&quot;color: #066555&quot;&gt;String &lt;/span&gt;&lt;span style=&quot;color: #000000&quot;&gt;str2 &lt;/span&gt;= &lt;span style=&quot;color: #067d17 ; font-weight: bold&quot;&gt;&quot;123&quot;&lt;/span&gt;;&lt;br&gt;    &lt;span style=&quot;color: #066555&quot;&gt;System&lt;/span&gt;.&lt;span style=&quot;color: #871094 ; font-style: italic&quot;&gt;out&lt;/span&gt;.&lt;span style=&quot;color: #795e26&quot;&gt;println&lt;/span&gt;(&lt;span style=&quot;color: #000000&quot;&gt;str1 &lt;/span&gt;== &lt;span style=&quot;color: #000000&quot;&gt;str2&lt;/span&gt;);&lt;br&gt;}&lt;/pre&gt;&lt;/pre&gt;&lt;/pre&gt;&lt;/pre&gt;" style="rounded=0;whiteSpace=wrap;html=1;fillColor=#ffe6cc;strokeColor=#d79b00;comic=1;align=left;" vertex="1" parent="1">
                    <mxGeometry x="240" y="590" width="248.5" height="70" as="geometry"/>
                </mxCell>
                <mxCell id="55" style="edgeStyle=none;rounded=0;sketch=1;html=1;exitX=1;exitY=0.5;exitDx=0;exitDy=0;entryX=0;entryY=0.5;entryDx=0;entryDy=0;fontSize=11;" edge="1" parent="1" source="52" target="54">
                    <mxGeometry relative="1" as="geometry"/>
                </mxCell>
                <mxCell id="52" value="" style="shape=image;imageAspect=0;aspect=fixed;verticalLabelPosition=bottom;verticalAlign=top;comic=1;sketch=1;fontSize=11;image=https://codereaper-image-bed.oss-cn-shenzhen.aliyuncs.com/img/image-20220904003112732.png;imageBorder=default;" vertex="1" parent="1">
                    <mxGeometry x="560" y="605" width="62.93" height="40" as="geometry"/>
                </mxCell>
                <mxCell id="54" value="&lt;div style=&quot;text-align: left&quot;&gt;① str1的字面量先&lt;b&gt;创建了String实例添加到串池&lt;/b&gt;中&lt;/div&gt;&lt;div style=&quot;text-align: left&quot;&gt;② str2再次赋值相同的字符串时，就会&lt;b&gt;在串池中找到已存在的String实例&lt;/b&gt;，因此直接返回&lt;/div&gt;&lt;div style=&quot;text-align: left&quot;&gt;所以str2得到的也是同一个引用，故结果为true&lt;/div&gt;" style="rounded=0;whiteSpace=wrap;html=1;fillColor=#ffe6cc;strokeColor=#d79b00;comic=1;sketch=1;" vertex="1" parent="1">
                    <mxGeometry x="656.73" y="569.6800000000001" width="183" height="110.63" as="geometry"/>
                </mxCell>
                <mxCell id="60" style="sketch=1;html=1;exitX=1;exitY=0.5;exitDx=0;exitDy=0;entryX=0;entryY=0.5;entryDx=0;entryDy=0;fontSize=11;" edge="1" parent="1" source="56" target="59">
                    <mxGeometry relative="1" as="geometry"/>
                </mxCell>
                <mxCell id="63" style="edgeStyle=none;sketch=1;html=1;exitX=1;exitY=0.5;exitDx=0;exitDy=0;entryX=0;entryY=0.5;entryDx=0;entryDy=0;fontSize=11;" edge="1" parent="1" source="56" target="62">
                    <mxGeometry relative="1" as="geometry"/>
                </mxCell>
                <mxCell id="56" value="String#intern方法" style="rounded=0;whiteSpace=wrap;html=1;fillColor=#dae8fc;strokeColor=#6c8ebf;comic=1;" vertex="1" parent="1">
                    <mxGeometry x="160" y="770" width="80" height="30" as="geometry"/>
                </mxCell>
                <mxCell id="58" value="&lt;b&gt;默认&lt;/b&gt;情况下只有&lt;b&gt;字面量字符串才会进入串池&lt;/b&gt;，&lt;br&gt;而&lt;b&gt;普通字符串&lt;/b&gt;可以调用这个方法&lt;b&gt;将自己加入到串池&lt;/b&gt;中" style="rounded=0;whiteSpace=wrap;html=1;fillColor=#ffe6cc;strokeColor=#d79b00;comic=1;sketch=1;" vertex="1" parent="1">
                    <mxGeometry x="350" y="710" width="290" height="50" as="geometry"/>
                </mxCell>
                <mxCell id="61" style="edgeStyle=none;sketch=1;html=1;exitX=1;exitY=0.5;exitDx=0;exitDy=0;entryX=0;entryY=0.5;entryDx=0;entryDy=0;fontSize=11;" edge="1" parent="1" source="59" target="58">
                    <mxGeometry relative="1" as="geometry"/>
                </mxCell>
                <mxCell id="59" value="作用" style="rounded=0;whiteSpace=wrap;html=1;fillColor=#dae8fc;strokeColor=#6c8ebf;comic=1;" vertex="1" parent="1">
                    <mxGeometry x="270" y="720" width="50" height="30" as="geometry"/>
                </mxCell>
                <mxCell id="65" style="edgeStyle=none;sketch=1;html=1;exitX=1;exitY=0.5;exitDx=0;exitDy=0;entryX=0;entryY=0.5;entryDx=0;entryDy=0;fontSize=11;" edge="1" parent="1" source="62" target="64">
                    <mxGeometry relative="1" as="geometry"/>
                </mxCell>
                <mxCell id="67" style="edgeStyle=none;sketch=1;html=1;exitX=1;exitY=0.5;exitDx=0;exitDy=0;entryX=0;entryY=0.5;entryDx=0;entryDy=0;fontSize=11;" edge="1" parent="1" source="62" target="66">
                    <mxGeometry relative="1" as="geometry"/>
                </mxCell>
                <mxCell id="62" value="实现" style="rounded=0;whiteSpace=wrap;html=1;fillColor=#dae8fc;strokeColor=#6c8ebf;comic=1;" vertex="1" parent="1">
                    <mxGeometry x="270" y="815" width="50" height="30" as="geometry"/>
                </mxCell>
                <mxCell id="72" style="edgeStyle=none;sketch=1;html=1;exitX=1;exitY=0.5;exitDx=0;exitDy=0;entryX=0;entryY=0.5;entryDx=0;entryDy=0;fontSize=11;" edge="1" parent="1" source="64" target="70">
                    <mxGeometry relative="1" as="geometry"/>
                </mxCell>
                <mxCell id="64" value="jdk1.6" style="rounded=0;whiteSpace=wrap;html=1;fillColor=#d5e8d4;strokeColor=#82b366;comic=1;" vertex="1" parent="1">
                    <mxGeometry x="350" y="842.5" width="50" height="30" as="geometry"/>
                </mxCell>
                <mxCell id="69" style="edgeStyle=none;sketch=1;html=1;exitX=1;exitY=0.5;exitDx=0;exitDy=0;entryX=0;entryY=0.5;entryDx=0;entryDy=0;fontSize=11;" edge="1" parent="1" source="66" target="68">
                    <mxGeometry relative="1" as="geometry"/>
                </mxCell>
                <mxCell id="66" value="jdk1.8" style="rounded=0;whiteSpace=wrap;html=1;fillColor=#d5e8d4;strokeColor=#82b366;comic=1;" vertex="1" parent="1">
                    <mxGeometry x="350" y="780" width="50" height="30" as="geometry"/>
                </mxCell>
                <mxCell id="74" style="edgeStyle=none;sketch=1;html=1;exitX=1;exitY=0.5;exitDx=0;exitDy=0;entryX=0;entryY=0.5;entryDx=0;entryDy=0;fontSize=11;" edge="1" parent="1" source="68" target="73">
                    <mxGeometry relative="1" as="geometry"/>
                </mxCell>
                <mxCell id="68" value="&lt;div style=&quot;text-align: left&quot;&gt;&lt;span&gt;① 尝试将当前字符串加入串池（放入的是引用）&lt;/span&gt;&lt;/div&gt;&lt;div style=&quot;text-align: left&quot;&gt;② 返回&lt;b&gt;串池中的字符串对象实例&lt;/b&gt;&lt;/div&gt;" style="rounded=0;whiteSpace=wrap;html=1;fillColor=#ffe6cc;strokeColor=#d79b00;comic=1;sketch=1;" vertex="1" parent="1">
                    <mxGeometry x="430" y="775" width="260" height="40" as="geometry"/>
                </mxCell>
                <mxCell id="75" style="edgeStyle=none;sketch=1;html=1;exitX=1;exitY=0.5;exitDx=0;exitDy=0;entryX=0;entryY=0.5;entryDx=0;entryDy=0;fontSize=11;" edge="1" parent="1" source="70" target="73">
                    <mxGeometry relative="1" as="geometry"/>
                </mxCell>
                <mxCell id="70" value="&lt;div style=&quot;text-align: left&quot;&gt;&lt;span&gt;① 尝试将当前字符串加入串池（放入的是引用）&lt;/span&gt;&lt;/div&gt;&lt;div style=&quot;text-align: left&quot;&gt;② 若串池没有则&lt;b&gt;复制得到一个新的String对象&lt;/b&gt;，将&lt;b&gt;此对象放入串池中&lt;/b&gt;&lt;/div&gt;&lt;div style=&quot;text-align: left&quot;&gt;③ 返回串池中的字符串对象实例&lt;/div&gt;" style="rounded=0;whiteSpace=wrap;html=1;fillColor=#ffe6cc;strokeColor=#d79b00;comic=1;sketch=1;" vertex="1" parent="1">
                    <mxGeometry x="430" y="825" width="260" height="65" as="geometry"/>
                </mxCell>
                <mxCell id="73" value="&lt;div style=&quot;text-align: left&quot;&gt;串池中无此字符串时&lt;/div&gt;&lt;div style=&quot;text-align: left&quot;&gt;1.8放入的是&lt;b&gt;原对象&lt;/b&gt;&lt;/div&gt;&lt;div style=&quot;text-align: left&quot;&gt;1.6放入的是&lt;b&gt;复制得到的新对象&lt;/b&gt;&lt;/div&gt;" style="rounded=0;whiteSpace=wrap;html=1;fillColor=#dae8fc;strokeColor=#6c8ebf;comic=1;sketch=1;" vertex="1" parent="1">
                    <mxGeometry x="720" y="800" width="173" height="55.63" as="geometry"/>
                </mxCell>
                <mxCell id="78" style="edgeStyle=none;sketch=1;html=1;exitX=1;exitY=0.5;exitDx=0;exitDy=0;entryX=0;entryY=0.5;entryDx=0;entryDy=0;fontSize=11;" edge="1" parent="1" source="76" target="77">
                    <mxGeometry relative="1" as="geometry"/>
                </mxCell>
                <mxCell id="86" style="edgeStyle=none;sketch=1;html=1;exitX=1;exitY=0.5;exitDx=0;exitDy=0;entryX=0;entryY=0.5;entryDx=0;entryDy=0;fontSize=11;entryPerimeter=0;" edge="1" parent="1" source="76" target="85">
                    <mxGeometry relative="1" as="geometry"/>
                </mxCell>
                <mxCell id="76" value="面试题" style="rounded=0;whiteSpace=wrap;html=1;fillColor=#ffe6cc;strokeColor=#d79b00;comic=1;" vertex="1" parent="1">
                    <mxGeometry x="40" y="990" width="80" height="30" as="geometry"/>
                </mxCell>
                <mxCell id="80" style="edgeStyle=none;sketch=1;html=1;exitX=1;exitY=0.5;exitDx=0;exitDy=0;entryX=0;entryY=0.5;entryDx=0;entryDy=0;fontSize=11;" edge="1" parent="1" source="77" target="79">
                    <mxGeometry relative="1" as="geometry"/>
                </mxCell>
                <mxCell id="77" value="&lt;pre style=&quot;background-color: rgb(255 , 255 , 255) ; color: rgb(8 , 8 , 8) ; font-family: &amp;#34;consolas&amp;#34; , monospace ; font-size: 11px&quot;&gt;&lt;pre style=&quot;font-family: &amp;#34;consolas&amp;#34; , monospace&quot;&gt;&lt;pre style=&quot;font-family: &amp;#34;consolas&amp;#34; , monospace&quot;&gt;&lt;pre style=&quot;font-family: &amp;#34;consolas&amp;#34; , monospace&quot;&gt;&lt;pre style=&quot;font-family: &amp;#34;consolas&amp;#34; , monospace&quot;&gt;&lt;span style=&quot;color: #0033b3&quot;&gt;public static void &lt;/span&gt;&lt;span style=&quot;color: #795e26&quot;&gt;main&lt;/span&gt;(&lt;span style=&quot;color: #066555&quot;&gt;String&lt;/span&gt;[] args) {&lt;br&gt;    &lt;span style=&quot;color: #066555&quot;&gt;String &lt;/span&gt;&lt;span style=&quot;color: #000000&quot;&gt;s1 &lt;/span&gt;= &lt;span style=&quot;color: #067d17 ; font-weight: bold&quot;&gt;&quot;a&quot;&lt;/span&gt;;&lt;br&gt;    &lt;span style=&quot;color: #066555&quot;&gt;String &lt;/span&gt;&lt;span style=&quot;color: #000000&quot;&gt;s2 &lt;/span&gt;= &lt;span style=&quot;color: #067d17 ; font-weight: bold&quot;&gt;&quot;b&quot;&lt;/span&gt;;&lt;br&gt;    &lt;span style=&quot;color: #066555&quot;&gt;String &lt;/span&gt;&lt;span style=&quot;color: #000000&quot;&gt;s3 &lt;/span&gt;= &lt;span style=&quot;color: #067d17 ; font-weight: bold&quot;&gt;&quot;a&quot; &lt;/span&gt;+ &lt;span style=&quot;color: #067d17 ; font-weight: bold&quot;&gt;&quot;b&quot;&lt;/span&gt;;&lt;br&gt;    &lt;span style=&quot;color: #066555&quot;&gt;String &lt;/span&gt;&lt;span style=&quot;color: #000000&quot;&gt;s4 &lt;/span&gt;= &lt;span style=&quot;color: #000000&quot;&gt;s1 &lt;/span&gt;+ &lt;span style=&quot;color: #000000&quot;&gt;s2&lt;/span&gt;;&lt;br&gt;    &lt;span style=&quot;color: #066555&quot;&gt;String &lt;/span&gt;&lt;span style=&quot;color: #000000&quot;&gt;s5 &lt;/span&gt;= &lt;span style=&quot;color: #067d17 ; font-weight: bold&quot;&gt;&quot;ab&quot;&lt;/span&gt;;&lt;br&gt;    &lt;span style=&quot;color: #066555&quot;&gt;String &lt;/span&gt;&lt;span style=&quot;color: #000000&quot;&gt;s6 &lt;/span&gt;= &lt;span style=&quot;color: #000000&quot;&gt;s4&lt;/span&gt;.&lt;span style=&quot;color: #795e26&quot;&gt;intern&lt;/span&gt;();&lt;br&gt;&lt;br&gt;    &lt;span style=&quot;color: #066555&quot;&gt;System&lt;/span&gt;.&lt;span style=&quot;color: #871094 ; font-style: italic&quot;&gt;out&lt;/span&gt;.&lt;span style=&quot;color: #795e26&quot;&gt;println&lt;/span&gt;(&lt;span style=&quot;color: #000000&quot;&gt;s3 &lt;/span&gt;== &lt;span style=&quot;color: #000000&quot;&gt;s4&lt;/span&gt;);&lt;br&gt;    &lt;span style=&quot;color: #066555&quot;&gt;System&lt;/span&gt;.&lt;span style=&quot;color: #871094 ; font-style: italic&quot;&gt;out&lt;/span&gt;.&lt;span style=&quot;color: #795e26&quot;&gt;println&lt;/span&gt;(&lt;span style=&quot;color: #000000&quot;&gt;s3 &lt;/span&gt;== &lt;span style=&quot;color: #000000&quot;&gt;s5&lt;/span&gt;);&lt;br&gt;    &lt;span style=&quot;color: #066555&quot;&gt;System&lt;/span&gt;.&lt;span style=&quot;color: #871094 ; font-style: italic&quot;&gt;out&lt;/span&gt;.&lt;span style=&quot;color: #795e26&quot;&gt;println&lt;/span&gt;(&lt;span style=&quot;color: #000000&quot;&gt;s3 &lt;/span&gt;== &lt;span style=&quot;color: #000000&quot;&gt;s6&lt;/span&gt;);&lt;br&gt;}&lt;/pre&gt;&lt;/pre&gt;&lt;/pre&gt;&lt;/pre&gt;&lt;/pre&gt;" style="rounded=0;whiteSpace=wrap;html=1;fillColor=#ffe6cc;strokeColor=#d79b00;comic=1;align=left;" vertex="1" parent="1">
                    <mxGeometry x="160" y="925" width="245" height="160" as="geometry"/>
                </mxCell>
                <mxCell id="84" style="edgeStyle=none;sketch=1;html=1;exitX=1;exitY=0.5;exitDx=0;exitDy=0;entryX=0;entryY=0.5;entryDx=0;entryDy=0;fontSize=11;" edge="1" parent="1" source="79" target="83">
                    <mxGeometry relative="1" as="geometry"/>
                </mxCell>
                <mxCell id="79" value="" style="shape=image;imageAspect=0;aspect=fixed;verticalLabelPosition=bottom;verticalAlign=top;comic=1;sketch=1;fontSize=11;image=https://codereaper-image-bed.oss-cn-shenzhen.aliyuncs.com/img/image-20220904005846957.png;imageBorder=default;" vertex="1" parent="1">
                    <mxGeometry x="438.78999999999996" y="968.75" width="101.21" height="72.5" as="geometry"/>
                </mxCell>
                <mxCell id="81" value="&lt;font color=&quot;#6262fc&quot;&gt;&lt;span style=&quot;font-size: 10px&quot;&gt;编译后为 &quot;ab&quot;&lt;/span&gt;&lt;/font&gt;" style="rounded=0;whiteSpace=wrap;html=1;fillColor=none;strokeColor=none;comic=1;align=left;sketch=1;" vertex="1" parent="1">
                    <mxGeometry x="324.5" y="960" width="90" height="20" as="geometry"/>
                </mxCell>
                <mxCell id="83" value="&lt;div style=&quot;text-align: left&quot;&gt;s3：字面量&quot;ab&quot;创建出来的对象，并放入串池&lt;/div&gt;&lt;div style=&quot;text-align: left&quot;&gt;s4：StringBuilder构建出来的对象，没放入串池&lt;/div&gt;&lt;div style=&quot;text-align: left&quot;&gt;s5：发现串池中有&quot;ab&quot;，直接获取串池中的对象引用，即和s3引用同一对象&lt;/div&gt;&lt;div style=&quot;text-align: left&quot;&gt;s6：s4尝试入池失败，返回串池中已有的&quot;ab&quot;字符串对象引用，即和s3引用同一对象&lt;/div&gt;" style="rounded=0;whiteSpace=wrap;html=1;fillColor=#ffe6cc;strokeColor=#d79b00;comic=1;sketch=1;" vertex="1" parent="1">
                    <mxGeometry x="580" y="958.12" width="260" height="93.75" as="geometry"/>
                </mxCell>
                <mxCell id="88" style="edgeStyle=none;sketch=1;html=1;exitX=1;exitY=0.5;exitDx=0;exitDy=0;entryX=0;entryY=0.5;entryDx=0;entryDy=0;fontSize=11;" edge="1" parent="1" source="85" target="87">
                    <mxGeometry relative="1" as="geometry"/>
                </mxCell>
                <mxCell id="92" value="调换顺序" style="edgeStyle=none;sketch=1;html=1;exitX=0.5;exitY=1;exitDx=0;exitDy=0;entryX=0.5;entryY=0;entryDx=0;entryDy=0;fontSize=11;startArrow=classic;startFill=1;" edge="1" parent="1" source="85" target="91">
                    <mxGeometry relative="1" as="geometry"/>
                </mxCell>
                <mxCell id="85" value="&lt;pre style=&quot;background-color: rgb(255 , 255 , 255) ; color: rgb(8 , 8 , 8) ; font-family: &amp;#34;consolas&amp;#34; , monospace ; font-size: 11px&quot;&gt;&lt;pre style=&quot;font-family: &amp;#34;consolas&amp;#34; , monospace&quot;&gt;&lt;pre style=&quot;font-family: &amp;#34;consolas&amp;#34; , monospace&quot;&gt;&lt;pre style=&quot;font-family: &amp;#34;consolas&amp;#34; , monospace&quot;&gt;&lt;pre style=&quot;font-family: &amp;#34;consolas&amp;#34; , monospace&quot;&gt;&lt;pre style=&quot;font-family: &amp;#34;consolas&amp;#34; , monospace&quot;&gt;&lt;span style=&quot;color: #0033b3&quot;&gt;public static void &lt;/span&gt;&lt;span style=&quot;color: #795e26&quot;&gt;main&lt;/span&gt;(&lt;span style=&quot;color: #066555&quot;&gt;String&lt;/span&gt;[] args) {&lt;br&gt;    &lt;span style=&quot;color: #066555&quot;&gt;String &lt;/span&gt;&lt;span style=&quot;color: #000000&quot;&gt;x2 &lt;/span&gt;= &lt;span style=&quot;color: #0033b3&quot;&gt;new &lt;/span&gt;&lt;span style=&quot;color: #795e26&quot;&gt;String&lt;/span&gt;(&lt;span style=&quot;color: #067d17 ; font-weight: bold&quot;&gt;&quot;c&quot;&lt;/span&gt;) + &lt;span style=&quot;color: #0033b3&quot;&gt;new &lt;/span&gt;&lt;span style=&quot;color: #795e26&quot;&gt;String&lt;/span&gt;(&lt;span style=&quot;color: #067d17 ; font-weight: bold&quot;&gt;&quot;d&quot;&lt;/span&gt;);&lt;br&gt;    &lt;span style=&quot;color: #066555&quot;&gt;String &lt;/span&gt;&lt;span style=&quot;color: #000000&quot;&gt;x1 &lt;/span&gt;= &lt;span style=&quot;color: #067d17 ; font-weight: bold&quot;&gt;&quot;cd&quot;&lt;/span&gt;;&lt;br&gt;    &lt;span style=&quot;color: #000000&quot;&gt;x2&lt;/span&gt;.&lt;span style=&quot;color: #795e26&quot;&gt;intern&lt;/span&gt;();&lt;br&gt;&lt;br&gt;    &lt;span style=&quot;color: #066555&quot;&gt;System&lt;/span&gt;.&lt;span style=&quot;color: #871094 ; font-style: italic&quot;&gt;out&lt;/span&gt;.&lt;span style=&quot;color: #795e26&quot;&gt;println&lt;/span&gt;(&lt;span style=&quot;color: #000000&quot;&gt;x1 &lt;/span&gt;== &lt;span style=&quot;color: #000000&quot;&gt;x2&lt;/span&gt;);&lt;br&gt;}&lt;/pre&gt;&lt;/pre&gt;&lt;/pre&gt;&lt;/pre&gt;&lt;/pre&gt;&lt;/pre&gt;" style="rounded=0;whiteSpace=wrap;html=1;fillColor=#ffe6cc;strokeColor=#d79b00;comic=1;align=left;" vertex="1" parent="1">
                    <mxGeometry x="160" y="1100" width="310" height="100" as="geometry"/>
                </mxCell>
                <mxCell id="90" style="edgeStyle=none;sketch=1;html=1;exitX=1;exitY=0.5;exitDx=0;exitDy=0;entryX=0;entryY=0.5;entryDx=0;entryDy=0;fontSize=11;" edge="1" parent="1" source="87" target="89">
                    <mxGeometry relative="1" as="geometry"/>
                </mxCell>
                <mxCell id="87" value="" style="shape=image;imageAspect=0;aspect=fixed;verticalLabelPosition=bottom;verticalAlign=top;comic=1;sketch=1;fontSize=11;image=https://codereaper-image-bed.oss-cn-shenzhen.aliyuncs.com/img/image-20220904010530484.png;imageBorder=default;" vertex="1" parent="1">
                    <mxGeometry x="510" y="1129.5" width="64.74" height="41" as="geometry"/>
                </mxCell>
                <mxCell id="89" value="&lt;div style=&quot;text-align: left&quot;&gt;显然是两个不同的对象&lt;/div&gt;" style="rounded=0;whiteSpace=wrap;html=1;fillColor=#ffe6cc;strokeColor=#d79b00;comic=1;sketch=1;" vertex="1" parent="1">
                    <mxGeometry x="600" y="1134.0600000000002" width="130" height="31.87" as="geometry"/>
                </mxCell>
                <mxCell id="95" style="edgeStyle=none;sketch=1;html=1;exitX=1;exitY=0.5;exitDx=0;exitDy=0;entryX=0;entryY=0.5;entryDx=0;entryDy=0;fontSize=11;startArrow=none;startFill=0;" edge="1" parent="1" source="91" target="94">
                    <mxGeometry relative="1" as="geometry"/>
                </mxCell>
                <mxCell id="96" style="edgeStyle=none;sketch=1;html=1;exitX=1;exitY=0.5;exitDx=0;exitDy=0;entryX=0;entryY=0.5;entryDx=0;entryDy=0;fontSize=11;startArrow=none;startFill=0;" edge="1" parent="1" source="91" target="93">
                    <mxGeometry relative="1" as="geometry"/>
                </mxCell>
                <mxCell id="91" value="&lt;pre style=&quot;background-color: rgb(255 , 255 , 255) ; color: rgb(8 , 8 , 8) ; font-family: &amp;#34;consolas&amp;#34; , monospace ; font-size: 11px&quot;&gt;&lt;pre style=&quot;font-family: &amp;#34;consolas&amp;#34; , monospace&quot;&gt;&lt;pre style=&quot;font-family: &amp;#34;consolas&amp;#34; , monospace&quot;&gt;&lt;pre style=&quot;font-family: &amp;#34;consolas&amp;#34; , monospace&quot;&gt;&lt;pre style=&quot;font-family: &amp;#34;consolas&amp;#34; , monospace&quot;&gt;&lt;pre style=&quot;font-family: &amp;#34;consolas&amp;#34; , monospace&quot;&gt;&lt;pre style=&quot;font-family: &amp;#34;consolas&amp;#34; , monospace&quot;&gt;&lt;span style=&quot;color: #0033b3&quot;&gt;public static void &lt;/span&gt;&lt;span style=&quot;color: #795e26&quot;&gt;main&lt;/span&gt;(&lt;span style=&quot;color: #066555&quot;&gt;String&lt;/span&gt;[] args) {&lt;br&gt;    &lt;span style=&quot;color: #066555&quot;&gt;String &lt;/span&gt;&lt;span style=&quot;color: #000000&quot;&gt;x2 &lt;/span&gt;= &lt;span style=&quot;color: #0033b3&quot;&gt;new &lt;/span&gt;&lt;span style=&quot;color: #795e26&quot;&gt;String&lt;/span&gt;(&lt;span style=&quot;color: #067d17 ; font-weight: bold&quot;&gt;&quot;c&quot;&lt;/span&gt;) + &lt;span style=&quot;color: #0033b3&quot;&gt;new &lt;/span&gt;&lt;span style=&quot;color: #795e26&quot;&gt;String&lt;/span&gt;(&lt;span style=&quot;color: #067d17 ; font-weight: bold&quot;&gt;&quot;d&quot;&lt;/span&gt;);&lt;br&gt;    &lt;span style=&quot;color: #000000&quot;&gt;x2&lt;/span&gt;.&lt;span style=&quot;color: #795e26&quot;&gt;intern&lt;/span&gt;();&lt;br&gt;    &lt;span style=&quot;color: #066555&quot;&gt;String &lt;/span&gt;&lt;span style=&quot;color: #000000&quot;&gt;x1 &lt;/span&gt;= &lt;span style=&quot;color: #067d17 ; font-weight: bold&quot;&gt;&quot;cd&quot;&lt;/span&gt;;&lt;br&gt;&lt;br&gt;    &lt;span style=&quot;color: #066555&quot;&gt;System&lt;/span&gt;.&lt;span style=&quot;color: #871094 ; font-style: italic&quot;&gt;out&lt;/span&gt;.&lt;span style=&quot;color: #795e26&quot;&gt;println&lt;/span&gt;(&lt;span style=&quot;color: #000000&quot;&gt;x1 &lt;/span&gt;== &lt;span style=&quot;color: #000000&quot;&gt;x2&lt;/span&gt;);&lt;br&gt;}&lt;/pre&gt;&lt;/pre&gt;&lt;/pre&gt;&lt;/pre&gt;&lt;/pre&gt;&lt;/pre&gt;&lt;/pre&gt;" style="rounded=0;whiteSpace=wrap;html=1;fillColor=#ffe6cc;strokeColor=#d79b00;comic=1;align=left;" vertex="1" parent="1">
                    <mxGeometry x="160" y="1240" width="310" height="100" as="geometry"/>
                </mxCell>
                <mxCell id="100" style="edgeStyle=none;sketch=1;html=1;exitX=1;exitY=0.5;exitDx=0;exitDy=0;entryX=0;entryY=0.5;entryDx=0;entryDy=0;fontSize=11;startArrow=none;startFill=0;" edge="1" parent="1" source="93" target="99">
                    <mxGeometry relative="1" as="geometry"/>
                </mxCell>
                <mxCell id="93" value="jdk1.6" style="rounded=0;whiteSpace=wrap;html=1;fillColor=#d5e8d4;strokeColor=#82b366;comic=1;" vertex="1" parent="1">
                    <mxGeometry x="507" y="1306.25" width="50" height="30" as="geometry"/>
                </mxCell>
                <mxCell id="98" style="edgeStyle=none;sketch=1;html=1;exitX=1;exitY=0.5;exitDx=0;exitDy=0;entryX=0;entryY=0.5;entryDx=0;entryDy=0;fontSize=11;startArrow=none;startFill=0;" edge="1" parent="1" source="94" target="97">
                    <mxGeometry relative="1" as="geometry"/>
                </mxCell>
                <mxCell id="94" value="jdk1.8" style="rounded=0;whiteSpace=wrap;html=1;fillColor=#d5e8d4;strokeColor=#82b366;comic=1;" vertex="1" parent="1">
                    <mxGeometry x="507" y="1243.75" width="50" height="30" as="geometry"/>
                </mxCell>
                <mxCell id="102" style="edgeStyle=none;sketch=1;html=1;exitX=1;exitY=0.5;exitDx=0;exitDy=0;entryX=0;entryY=0.5;entryDx=0;entryDy=0;fontSize=11;startArrow=none;startFill=0;" edge="1" parent="1" source="97" target="101">
                    <mxGeometry relative="1" as="geometry"/>
                </mxCell>
                <mxCell id="97" value="&lt;div style=&quot;text-align: left&quot;&gt;① x2入池成功，串池中存有x2引用的字符串实例&lt;/div&gt;&lt;div style=&quot;text-align: left&quot;&gt;② &quot;cd&quot;发现串池中存在，返回x2的引用，即x1和x2引用同一字符串实例，故为true&lt;/div&gt;" style="rounded=0;whiteSpace=wrap;html=1;fillColor=#ffe6cc;strokeColor=#d79b00;comic=1;sketch=1;" vertex="1" parent="1">
                    <mxGeometry x="590" y="1234.69" width="270" height="48.12" as="geometry"/>
                </mxCell>
                <mxCell id="99" value="&lt;div style=&quot;text-align: left&quot;&gt;① x2入池成功，串池中存有&lt;b&gt;x2复制得到的新字符串实例&lt;/b&gt;&lt;/div&gt;&lt;div style=&quot;text-align: left&quot;&gt;② &quot;cd&quot;发现串池中存在，返回上面的&lt;b&gt;新字符串实例引用&lt;/b&gt;，即x1=新字符串实例，故为false&lt;/div&gt;" style="rounded=0;whiteSpace=wrap;html=1;fillColor=#ffe6cc;strokeColor=#d79b00;comic=1;sketch=1;" vertex="1" parent="1">
                    <mxGeometry x="590" y="1297.19" width="330" height="48.12" as="geometry"/>
                </mxCell>
                <mxCell id="101" value="" style="shape=image;imageAspect=0;aspect=fixed;verticalLabelPosition=bottom;verticalAlign=top;comic=1;sketch=1;fontSize=11;image=https://codereaper-image-bed.oss-cn-shenzhen.aliyuncs.com/img/image-20220904011047952.png;imageBorder=default;" vertex="1" parent="1">
                    <mxGeometry x="883.11" y="1235.6100000000001" width="86.89" height="46.27" as="geometry"/>
                </mxCell>
                <mxCell id="103" value="源码分析&lt;br&gt;symbolTable.cpp" style="rounded=0;whiteSpace=wrap;html=1;fillColor=#f8cecc;strokeColor=#b85450;comic=1;" vertex="1" parent="1">
                    <mxGeometry x="341" y="1400" width="146" height="40" as="geometry"/>
                </mxCell>
                <mxCell id="105" value="&lt;font color=&quot;#6262fc&quot;&gt;&lt;span style=&quot;font-size: 10px&quot;&gt;根据字符串short数组查找串池中是否存在&lt;/span&gt;&lt;/font&gt;" style="rounded=0;whiteSpace=wrap;html=1;fillColor=none;strokeColor=default;comic=1;align=left;sketch=1;" vertex="1" parent="1">
                    <mxGeometry x="364" y="1530" width="116" height="30" as="geometry"/>
                </mxCell>
                <mxCell id="106" value="&lt;font color=&quot;#6262fc&quot;&gt;&lt;span style=&quot;font-size: 10px&quot;&gt;串池存在，返回字符串实例&lt;/span&gt;&lt;/font&gt;" style="rounded=0;whiteSpace=wrap;html=1;fillColor=none;strokeColor=default;comic=1;align=left;sketch=1;" vertex="1" parent="1">
                    <mxGeometry x="274" y="1630" width="126" height="20" as="geometry"/>
                </mxCell>
                <mxCell id="107" value="&lt;font color=&quot;#6262fc&quot;&gt;&lt;span style=&quot;font-size: 10px&quot;&gt;串池中不存在，先根据short数组创建String实例&lt;/span&gt;&lt;/font&gt;" style="rounded=0;whiteSpace=wrap;html=1;fillColor=none;strokeColor=default;comic=1;align=left;sketch=1;" vertex="1" parent="1">
                    <mxGeometry x="274" y="1800" width="138" height="30" as="geometry"/>
                </mxCell>
                <mxCell id="108" value="&lt;font color=&quot;#6262fc&quot;&gt;&lt;span style=&quot;font-size: 10px&quot;&gt;添加字符串实例引用到串池中&lt;/span&gt;&lt;/font&gt;" style="rounded=0;whiteSpace=wrap;html=1;fillColor=none;strokeColor=default;comic=1;align=left;sketch=1;" vertex="1" parent="1">
                    <mxGeometry x="324.5" y="1980" width="138" height="20" as="geometry"/>
                </mxCell>
                <mxCell id="109" value="&lt;div style=&quot;color: rgb(56 , 58 , 66) ; background-color: rgb(250 , 250 , 250) ; font-family: &amp;#34;consolas&amp;#34; , &amp;#34;courier new&amp;#34; , monospace ; font-size: 11px ; line-height: 22px&quot;&gt;&lt;div&gt;&lt;span style=&quot;color: #e45649&quot;&gt;oop&lt;/span&gt; &lt;span style=&quot;color: #c18401&quot;&gt;StringTable&lt;/span&gt;::&lt;span style=&quot;color: #4078f2&quot;&gt;lookup&lt;/span&gt;(&lt;span style=&quot;color: #a626a4&quot;&gt;int&lt;/span&gt; index, &lt;span style=&quot;color: #c18401&quot;&gt;jchar&lt;/span&gt;&lt;span style=&quot;color: #a626a4&quot;&gt;*&lt;/span&gt; name,&lt;/div&gt;&lt;div&gt;&amp;nbsp; &amp;nbsp; &amp;nbsp; &amp;nbsp; &amp;nbsp; &amp;nbsp; &amp;nbsp; &amp;nbsp; &amp;nbsp; &amp;nbsp; &amp;nbsp; &amp;nbsp; &lt;span style=&quot;color: #a626a4&quot;&gt;int&lt;/span&gt; len, &lt;span style=&quot;color: #a626a4&quot;&gt;unsigned&lt;/span&gt; &lt;span style=&quot;color: #a626a4&quot;&gt;int&lt;/span&gt; hash) {&lt;/div&gt;&lt;div&gt;&amp;nbsp; &lt;span style=&quot;color: #a626a4&quot;&gt;int&lt;/span&gt; &lt;span style=&quot;color: #e45649&quot;&gt;count&lt;/span&gt; &lt;span style=&quot;color: #a626a4&quot;&gt;=&lt;/span&gt; &lt;span style=&quot;color: #986801&quot;&gt;0&lt;/span&gt;;&lt;/div&gt;&lt;div&gt;&amp;nbsp; &lt;span style=&quot;color: #a626a4&quot;&gt;for&lt;/span&gt; (&lt;span style=&quot;color: #c18401&quot;&gt;HashtableEntry&lt;/span&gt;&lt;span style=&quot;color: #a626a4&quot;&gt;&amp;lt;&lt;/span&gt;&lt;span style=&quot;color: #e45649&quot;&gt;oop&lt;/span&gt;, &lt;span style=&quot;color: #e45649&quot;&gt;mtSymbol&lt;/span&gt;&lt;span style=&quot;color: #a626a4&quot;&gt;&amp;gt;*&lt;/span&gt; &lt;span style=&quot;color: #e45649&quot;&gt;l&lt;/span&gt; &lt;span style=&quot;color: #a626a4&quot;&gt;=&lt;/span&gt; &lt;span style=&quot;color: #4078f2&quot;&gt;bucket&lt;/span&gt;(index); &lt;span style=&quot;color: #e45649&quot;&gt;l&lt;/span&gt; &lt;span style=&quot;color: #a626a4&quot;&gt;!=&lt;/span&gt; &lt;span style=&quot;color: #4078f2&quot;&gt;NULL&lt;/span&gt;; &lt;span style=&quot;color: #e45649&quot;&gt;l&lt;/span&gt; &lt;span style=&quot;color: #a626a4&quot;&gt;=&lt;/span&gt; &lt;span style=&quot;color: #e45649&quot;&gt;l&lt;/span&gt;-&amp;gt;&lt;span style=&quot;color: #4078f2&quot;&gt;next&lt;/span&gt;()) {&lt;/div&gt;&lt;div&gt;&amp;nbsp; &amp;nbsp; &lt;span style=&quot;color: #e45649&quot;&gt;count&lt;/span&gt;&lt;span style=&quot;color: #a626a4&quot;&gt;++&lt;/span&gt;;&lt;/div&gt;&lt;div&gt;&amp;nbsp; &amp;nbsp; &lt;span style=&quot;color: #a626a4&quot;&gt;if&lt;/span&gt; (&lt;span style=&quot;color: #e45649&quot;&gt;l&lt;/span&gt;-&amp;gt;&lt;span style=&quot;color: #4078f2&quot;&gt;hash&lt;/span&gt;() &lt;span style=&quot;color: #a626a4&quot;&gt;==&lt;/span&gt; hash) {&lt;/div&gt;&lt;div&gt;&amp;nbsp; &amp;nbsp; &amp;nbsp; &lt;span style=&quot;color: #a626a4&quot;&gt;if&lt;/span&gt; (&lt;span style=&quot;color: #c18401&quot;&gt;java_lang_String&lt;/span&gt;::&lt;span style=&quot;color: #4078f2&quot;&gt;equals&lt;/span&gt;(&lt;span style=&quot;color: #e45649&quot;&gt;l&lt;/span&gt;-&amp;gt;&lt;span style=&quot;color: #4078f2&quot;&gt;literal&lt;/span&gt;(), name, len)) {&lt;/div&gt;&lt;div&gt;&amp;nbsp; &amp;nbsp; &amp;nbsp; &amp;nbsp; &lt;span style=&quot;color: #a626a4&quot;&gt;return&lt;/span&gt; &lt;span style=&quot;color: #e45649&quot;&gt;l&lt;/span&gt;-&amp;gt;&lt;span style=&quot;color: #4078f2&quot;&gt;literal&lt;/span&gt;();&lt;/div&gt;&lt;div&gt;&amp;nbsp; &amp;nbsp; &amp;nbsp; }&lt;/div&gt;&lt;div&gt;&amp;nbsp; &amp;nbsp; }&lt;/div&gt;&lt;div&gt;&amp;nbsp; }&lt;/div&gt;&lt;div&gt;&lt;span style=&quot;color: #a0a1a7 ; font-style: italic&quot;&gt;&amp;nbsp; ...&lt;/span&gt;&lt;/div&gt;&lt;div&gt;&amp;nbsp; &lt;span style=&quot;color: #a626a4&quot;&gt;return&lt;/span&gt; &lt;span style=&quot;color: #4078f2&quot;&gt;NULL&lt;/span&gt;;&lt;/div&gt;&lt;div style=&quot;font-size: 11px&quot;&gt;}&lt;/div&gt;&lt;/div&gt;" style="rounded=0;whiteSpace=wrap;html=1;fillColor=#ffe6cc;strokeColor=#d79b00;comic=1;align=left;" vertex="1" parent="1">
                    <mxGeometry x="520" y="1470" width="520" height="310" as="geometry"/>
                </mxCell>
                <mxCell id="111" value="&lt;font color=&quot;#6262fc&quot;&gt;&lt;span style=&quot;font-size: 10px&quot;&gt;根据下标获得桶，遍历桶的每个元素&lt;/span&gt;&lt;/font&gt;" style="rounded=0;whiteSpace=wrap;html=1;fillColor=none;strokeColor=default;comic=1;align=left;sketch=1;" vertex="1" parent="1">
                    <mxGeometry x="734" y="1560" width="116" height="30" as="geometry"/>
                </mxCell>
                <mxCell id="112" value="&lt;div style=&quot;background-color: rgb(250 , 250 , 250) ; font-family: &amp;#34;consolas&amp;#34; , &amp;#34;courier new&amp;#34; , monospace ; font-size: 11px ; line-height: 22px&quot;&gt;&lt;div style=&quot;font-family: &amp;#34;consolas&amp;#34; , &amp;#34;courier new&amp;#34; , monospace ; line-height: 22px&quot;&gt;&lt;div style=&quot;color: rgb(56 , 58 , 66)&quot;&gt;&lt;span style=&quot;color: #e45649&quot;&gt;oop&lt;/span&gt; &lt;span style=&quot;color: #c18401&quot;&gt;StringTable&lt;/span&gt;::&lt;span style=&quot;color: #4078f2&quot;&gt;basic_add&lt;/span&gt;(&lt;span style=&quot;color: #a626a4&quot;&gt;int&lt;/span&gt; index_arg, &lt;span style=&quot;color: #c18401&quot;&gt;Handle&lt;/span&gt; string, &lt;span style=&quot;color: #c18401&quot;&gt;jchar&lt;/span&gt;&lt;span style=&quot;color: #a626a4&quot;&gt;*&lt;/span&gt; name,&lt;/div&gt;&lt;div style=&quot;color: rgb(56 , 58 , 66)&quot;&gt;&amp;nbsp; &amp;nbsp; &amp;nbsp; &amp;nbsp; &amp;nbsp; &amp;nbsp; &amp;nbsp; &amp;nbsp; &amp;nbsp; &amp;nbsp; &amp;nbsp; &amp;nbsp; &amp;nbsp; &amp;nbsp;&lt;span style=&quot;color: #a626a4&quot;&gt;int&lt;/span&gt; len, &lt;span style=&quot;color: #a626a4&quot;&gt;unsigned&lt;/span&gt; &lt;span style=&quot;color: #a626a4&quot;&gt;int&lt;/span&gt; hashValue_arg, &lt;span style=&quot;color: #4078f2&quot;&gt;TRAPS&lt;/span&gt;) {&lt;/div&gt;&lt;div&gt;&lt;font color=&quot;#383a42&quot;&gt;&amp;nbsp; &lt;/font&gt;&lt;font color=&quot;#4078f2&quot;&gt;...&lt;/font&gt;&lt;/div&gt;&lt;div style=&quot;color: rgb(56 , 58 , 66)&quot;&gt;&amp;nbsp; &lt;span style=&quot;color: #c18401&quot;&gt;HashtableEntry&lt;/span&gt;&lt;span style=&quot;color: #a626a4&quot;&gt;&amp;lt;&lt;/span&gt;&lt;span style=&quot;color: #e45649&quot;&gt;oop&lt;/span&gt;, &lt;span style=&quot;color: #e45649&quot;&gt;mtSymbol&lt;/span&gt;&lt;span style=&quot;color: #a626a4&quot;&gt;&amp;gt;*&lt;/span&gt; &lt;span style=&quot;color: #e45649&quot;&gt;entry&lt;/span&gt; &lt;span style=&quot;color: #a626a4&quot;&gt;=&lt;/span&gt; &lt;span style=&quot;color: #4078f2&quot;&gt;new_entry&lt;/span&gt;(&lt;span style=&quot;color: #e45649&quot;&gt;hashValue&lt;/span&gt;, string());&lt;/div&gt;&lt;div style=&quot;color: rgb(56 , 58 , 66)&quot;&gt;&amp;nbsp; &lt;span style=&quot;color: #4078f2&quot;&gt;add_entry&lt;/span&gt;(&lt;span style=&quot;color: #e45649&quot;&gt;index&lt;/span&gt;, &lt;span style=&quot;color: #e45649&quot;&gt;entry&lt;/span&gt;);&lt;/div&gt;&lt;div style=&quot;color: rgb(56 , 58 , 66)&quot;&gt;&amp;nbsp; &lt;span style=&quot;color: #a626a4&quot;&gt;return&lt;/span&gt; string();&lt;/div&gt;&lt;div style=&quot;color: rgb(56 , 58 , 66)&quot;&gt;}&lt;/div&gt;&lt;/div&gt;&lt;/div&gt;" style="rounded=0;whiteSpace=wrap;html=1;fillColor=#ffe6cc;strokeColor=#d79b00;comic=1;align=left;" vertex="1" parent="1">
                    <mxGeometry x="520" y="1790" width="440" height="160" as="geometry"/>
                </mxCell>
                <mxCell id="113" value="&lt;font color=&quot;#6262fc&quot;&gt;&lt;span style=&quot;font-size: 10px&quot;&gt;① 创建HashtableEntry&lt;br&gt;② 添加到串池中&lt;/span&gt;&lt;/font&gt;" style="rounded=0;whiteSpace=wrap;html=1;fillColor=none;strokeColor=default;comic=1;align=left;sketch=1;" vertex="1" parent="1">
                    <mxGeometry x="694" y="1880" width="116" height="30" as="geometry"/>
                </mxCell>
            </root>
        </mxGraphModel>
    </diagram>
</mxfile>